<svg width="130" height="35" viewBox="0 0 130 35" fill="none" xmlns="http://www.w3.org/2000/svg">
<path d="M56.6735 16.8911H64.1277V19.1679H59.2639V20.7564H63.6519V22.8744H59.2639V26.2103H56.6735V16.8911Z" fill="white"/>
<path d="M69.2029 16.7852H71.6877L75.6527 26.1573H72.9036L72.2164 24.5159H68.6214L67.9341 26.1573H65.2379L69.2029 16.7852ZM71.4234 22.5038L70.366 19.8563L69.3087 22.5038H71.4234Z" fill="white"/>
<path d="M77.0273 21.5507C77.0273 18.8502 79.0891 16.7322 81.9439 16.7322C83.8471 16.7322 85.0102 17.5794 85.856 18.6914L83.9528 20.174C83.4242 19.4856 82.7898 19.115 81.891 19.115C80.5693 19.115 79.6706 20.2269 79.6706 21.6036C79.6706 22.9803 80.5693 24.0923 81.891 24.0923C82.8426 24.0923 83.4242 23.6157 84.0057 22.9803L85.9618 24.357C85.063 25.5749 83.9 26.475 81.8382 26.475C79.1419 26.3691 77.0273 24.357 77.0273 21.5507Z" fill="white"/>
<path d="M90.7198 19.115H87.9179V16.8381H96.0594V19.115H93.2574V26.1573H90.667V19.115H90.7198Z" fill="white"/>
<path d="M97.9626 21.5507C97.9626 18.9032 100.13 16.7322 102.985 16.7322C105.84 16.7322 107.954 18.8502 107.954 21.5507C107.954 24.1982 105.787 26.3691 102.932 26.3691C100.13 26.3691 97.9626 24.2511 97.9626 21.5507ZM105.364 21.5507C105.364 20.2269 104.412 19.062 102.985 19.062C101.558 19.062 100.659 20.2269 100.659 21.5507C100.659 22.8744 101.61 24.0393 103.038 24.0393C104.412 24.0393 105.364 22.8744 105.364 21.5507Z" fill="white"/>
<path d="M110.704 16.8911H115.092C116.519 16.8911 117.471 17.2617 118.105 17.8971C118.634 18.4266 118.951 19.1679 118.951 20.121C118.951 21.5507 118.211 22.5038 117.048 22.9803L119.268 26.2103H116.307L114.457 23.4039H113.347V26.2103H110.756V16.8911H110.704ZM114.986 21.3389C115.885 21.3389 116.36 20.9153 116.36 20.2269C116.36 19.4856 115.832 19.115 114.986 19.115H113.294V21.3389H114.986Z" fill="white"/>
<path d="M123.867 22.7156L120.325 16.8911H123.286L125.189 20.2799L127.092 16.8911H129.947L126.405 22.6626V26.2103H123.815V22.7156H123.867Z" fill="white"/>
<path d="M56.6735 3.49469H60.2684C63.599 3.49469 65.5023 5.40089 65.5023 8.10135C65.5023 10.8018 63.5462 12.761 60.2156 12.761H56.6735V3.49469ZM60.3213 10.537C61.8544 10.537 62.8589 9.68985 62.8589 8.1543C62.8589 6.67169 61.8544 5.77154 60.3213 5.77154H59.2639V10.537H60.3213Z" fill="white"/>
<path d="M68.1985 3.49469H75.6527V5.66564H70.7361V7.0953H75.1769V9.1074H70.7361V10.59H75.7056V12.761H68.1985V3.49469Z" fill="white"/>
<path d="M78.6662 3.49469H81.0452L84.8516 8.41905V3.49469H87.3892V12.8139H85.1159L81.1509 7.7307V12.8139H78.6133V3.49469H78.6662Z" fill="white"/>
<path d="M92.5702 5.77154H89.7682V3.49469H97.9097V5.77154H95.1078V12.8139H92.5173V5.77154H92.5702Z" fill="white"/>
<path d="M102.403 3.44174H104.888L108.853 12.8139H106.104L105.417 11.1725H101.822L101.135 12.8139H98.4384L102.403 3.44174ZM104.677 9.1074L103.619 6.4599L102.562 9.1074H104.677Z" fill="white"/>
<path d="M111.074 3.49469H113.664V10.537H118.158V12.8139H111.074V3.49469Z" fill="white"/>
<path d="M58.1537 31.3994C58.6824 31.3994 59.1582 31.6112 59.4754 31.9289C59.7397 32.2466 59.9512 32.6702 59.9512 33.1467C59.9512 33.6762 59.7397 34.0999 59.4225 34.4176C59.1053 34.6823 58.6824 34.8941 58.1537 34.8941H56.7263V31.3994H58.1537ZM57.3078 31.9819V34.3646H58.1008C58.4709 34.3646 58.7352 34.2587 58.9467 34.0469C59.1582 33.8351 59.2639 33.5174 59.2639 33.1997C59.2639 32.8291 59.1582 32.5643 58.9467 32.3525C58.7352 32.1407 58.4709 32.0348 58.1008 32.0348H57.3078V31.9819Z" fill="white"/>
<path d="M61.4315 31.3994H64.1277V31.9819H62.0659V32.7761H63.9162V33.3585H62.0659V34.3646H64.2334V34.9471H61.4315V31.3994Z" fill="white"/>
<path d="M69.0443 31.3994V34.8941H68.4627L66.4009 32.4055V34.8941H65.7665V31.3994H66.3481L68.4099 33.8881V31.3994H69.0443Z" fill="white"/>
<path d="M70.5246 31.3994H73.7495V31.9819H72.4278V34.8941H71.7934V31.9819H70.4717V31.3994H70.5246Z" fill="white"/>
<path d="M76.7629 31.3994L78.296 34.8941H77.6088L77.3444 34.2587H75.4941L75.2298 34.8941H74.5425L76.0756 31.3994H76.7629ZM75.7056 33.7292H77.0801L76.3928 32.0877H76.34L75.7056 33.7292Z" fill="white"/>
<path d="M82.5254 34.8941H79.8292V31.3994H80.4636V34.3117H82.5783V34.8941H82.5254Z" fill="white"/>
<path d="M87.6006 34.0469C87.8121 34.2587 88.1293 34.4176 88.4994 34.4176C88.9223 34.4176 89.2395 34.2587 89.5567 33.994L89.9268 34.4176C89.5039 34.8412 89.0809 35 88.4994 35C87.9707 35 87.4949 34.7882 87.1777 34.4705C86.8605 34.1528 86.649 33.6763 86.649 33.1468C86.649 32.6173 86.8605 32.1937 87.1777 31.876C87.4949 31.5583 87.9707 31.3465 88.4994 31.3465C89.0809 31.3465 89.5039 31.5053 89.9268 31.9289L89.5567 32.3525C89.2395 32.0878 88.9223 31.9289 88.4994 31.9289C88.1822 31.9289 87.865 32.0348 87.6535 32.2996C87.442 32.5114 87.2834 32.8291 87.2834 33.1997C87.2834 33.5174 87.3892 33.8351 87.6006 34.0469Z" fill="white"/>
<path d="M94.1033 34.8941H91.4071V31.3994H92.0415V34.3117H94.1562V34.8941H94.1033Z" fill="white"/>
<path d="M96.2179 34.8941H95.5835V31.3994H96.2179V34.8941Z" fill="white"/>
<path d="M101.082 31.3994V34.8941H100.5L98.4384 32.4055V34.8941H97.804V31.3994H98.3855L100.447 33.8881V31.3994H101.082Z" fill="white"/>
<path d="M103.302 34.8941H102.668V31.3994H103.302V34.8941Z" fill="white"/>
<path d="M105.787 34.0469C105.998 34.2587 106.316 34.4176 106.686 34.4176C107.109 34.4176 107.426 34.2587 107.743 33.994L108.113 34.4176C107.69 34.8412 107.267 35 106.686 35C106.157 35 105.681 34.7882 105.364 34.4705C105.047 34.1528 104.835 33.6763 104.835 33.1468C104.835 32.6173 105.047 32.1937 105.364 31.876C105.681 31.5583 106.157 31.3465 106.686 31.3465C107.267 31.3465 107.69 31.5053 108.113 31.9289L107.743 32.3525C107.426 32.0878 107.109 31.9289 106.686 31.9289C106.368 31.9289 106.051 32.0348 105.84 32.2996C105.628 32.5114 105.47 32.8291 105.47 33.1997C105.417 33.5174 105.575 33.8351 105.787 34.0469Z" fill="white"/>
<path d="M31.7731 19.3268L31.9317 8.89561L23.5258 0H20.248L23.5258 14.2965L31.7731 19.3268Z" fill="white"/>
<path d="M26.1692 0.052948L31.9846 6.19516L32.0903 1.5885C30.24 0.794249 28.2839 0.264748 26.1692 0.052948Z" fill="white"/>
<path d="M21.2525 12.9198L18.3449 0H0L21.2525 12.9198Z" fill="white"/>
<path d="M21.8341 15.4614L0 2.17096V16.4145L15.5958 34.9471H24.6889C25.2176 34.9471 25.7462 34.8941 26.2749 34.8941L21.8341 15.4614Z" fill="white"/>
<path d="M24.1074 16.8381L28.1781 34.5764C29.3412 34.3646 30.4514 33.9939 31.5616 33.5174L31.7202 21.4448L24.1074 16.8381Z" fill="white"/>
<path d="M33.5706 22.6097L33.412 32.5643C36.0025 31.0817 38.17 28.9107 39.7032 26.3162L33.5706 22.6097Z" fill="white"/>
<path d="M41.9764 19.5386L33.782 10.8548L33.6234 20.4387L40.549 24.6747C41.2891 23.0333 41.7649 21.3389 41.9764 19.5386Z" fill="white"/>
<path d="M0 19.3268V34.8941H13.1639L0 19.3268Z" fill="white"/>
<path d="M33.8349 8.1543L42.0822 16.944C41.9236 10.9077 38.6987 5.66565 33.9406 2.64749L33.8349 8.1543Z" fill="white"/>
</svg>
